<?xml version="1.0" standalone="no"?>
<!DOCTYPE svg PUBLIC "-//W3C//DTD SVG 20010904//EN"
 "http://www.w3.org/TR/2001/REC-SVG-20010904/DTD/svg10.dtd">
<svg version="1.0" xmlns="http://www.w3.org/2000/svg"
 width="232.000000pt" height="128.000000pt" viewBox="0 0 232.000000 128.000000"
 preserveAspectRatio="xMidYMid meet">

<g transform="translate(0.000000,128.000000) scale(0.100000,-0.100000)"
fill="#000000" stroke="none">
<path d="M2162 1250 c-10 -16 -9 -18 3 -14 10 4 15 0 15 -11 0 -23 -19 -57
-30 -50 -4 3 -6 -4 -3 -15 3 -11 15 -26 27 -32 19 -10 20 -10 7 5 -11 14 -11
17 -1 17 8 0 10 3 7 7 -9 9 23 43 40 43 8 0 11 5 8 11 -5 7 -14 4 -26 -7 -18
-16 -19 -16 -19 19 0 42 -11 53 -28 27z"/>
<path d="M2080 1198 c-13 -18 -17 -27 -8 -20 24 19 33 -14 12 -46 -13 -19 -18
-22 -25 -11 -6 10 -9 8 -9 -9 0 -40 37 -61 105 -61 l60 0 -28 24 c-15 14 -38
24 -50 24 -17 -1 -18 -2 -4 -6 29 -8 20 -33 -12 -33 -37 0 -46 14 -25 38 17
20 25 86 14 116 -5 14 -10 11 -30 -16z"/>
<path d="M1977 1161 c-20 -26 -37 -57 -36 -67 0 -18 1 -18 8 1 5 11 19 29 31
40 l22 20 -4 -35 c-2 -25 -10 -38 -25 -45 -13 -5 -23 -15 -23 -22 0 -6 -10
-15 -22 -18 -13 -4 -32 -9 -42 -12 -16 -5 -14 2 12 38 25 33 32 53 32 87 l0
44 -55 -47 c-51 -44 -55 -51 -55 -91 l0 -43 -45 -7 c-25 -3 -49 -4 -52 -1 -3
4 8 18 24 31 29 24 61 81 51 91 -8 9 -99 -32 -121 -53 l-22 -22 40 20 c37 19
40 19 44 3 4 -19 -41 -63 -65 -63 -8 0 -14 8 -15 18 0 13 -2 12 -9 -5 -8 -19
-17 -23 -49 -23 -66 0 -78 10 -34 30 37 16 103 81 103 100 0 13 -18 12 -108
-4 -79 -14 -104 -31 -133 -88 -17 -33 -24 -38 -54 -38 -43 0 -44 10 -5 38 24
18 70 87 70 105 0 6 -157 -41 -180 -53 -12 -6 -31 -32 -43 -57 -19 -40 -29
-48 -72 -63 -27 -9 -72 -29 -100 -44 -56 -30 -47 -29 40 8 83 35 129 34 151
-2 22 -39 46 -52 112 -62 32 -6 69 -12 85 -16 20 -4 27 -2 27 9 0 17 -75 97
-90 97 -5 0 -10 5 -10 10 0 6 15 10 33 9 26 0 38 -8 62 -42 19 -26 41 -44 60
-48 50 -12 150 -27 154 -23 7 6 -49 82 -65 88 -22 9 -16 26 9 26 16 0 31 -12
48 -37 25 -39 40 -45 127 -57 66 -9 69 7 11 59 -22 20 -39 38 -37 40 1 2 15 5
30 7 21 2 34 -5 55 -29 23 -27 39 -34 92 -43 36 -5 67 -8 69 -5 9 9 -41 66
-71 82 -31 16 -31 16 -10 26 18 8 26 5 45 -16 19 -20 35 -26 86 -30 63 -5 63
-5 49 16 -8 12 -33 31 -56 42 -23 12 -38 25 -34 29 4 4 0 4 -10 0 -15 -6 -15
-2 3 37 21 47 25 76 12 96 -6 9 -19 -2 -45 -36z m-91 -97 c-21 -31 -46 -31
-46 0 0 15 11 33 28 46 l27 22 3 -22 c2 -11 -4 -32 -12 -46z m-315 8 c-16 -29
-36 -42 -76 -49 -34 -6 -37 -4 -33 18 4 28 40 49 86 49 29 0 31 -2 23 -18z
m-221 -1 c0 -23 -47 -62 -82 -68 -23 -3 -38 -2 -38 4 0 19 40 62 63 66 40 8
57 7 57 -2z m685 -43 c30 -14 33 -38 4 -38 -29 0 -59 18 -59 35 0 18 20 19 55
3z m-131 -39 c24 -11 42 -37 32 -46 -8 -9 -66 8 -81 24 -32 31 -2 45 49 22z
m-543 -57 l21 -27 -26 -3 c-34 -4 -93 24 -99 48 -10 40 69 26 104 -18z m206
13 c33 -38 29 -43 -24 -34 -45 8 -83 37 -83 61 0 22 84 0 107 -27z m186 7 c20
-18 23 -42 3 -42 -27 0 -75 22 -81 37 -13 35 40 38 78 5z"/>
<path d="M413 1158 l-9 -43 136 -5 135 -5 -3 -49 c-1 -27 -8 -60 -15 -75 -12
-25 -17 -26 -96 -29 l-84 -3 7 56 6 55 -50 0 c-27 0 -50 -2 -50 -4 0 -3 -22
-115 -50 -249 -27 -134 -50 -247 -50 -251 0 -3 22 -6 49 -6 l49 0 10 48 c6 26
20 97 32 158 l22 111 131 6 c157 6 155 4 186 149 26 122 26 133 1 158 -18 18
-33 20 -184 20 l-165 0 -8 -42z"/>
<path d="M2228 1148 c10 -10 7 -15 -10 -26 -15 -9 -17 -11 -5 -8 10 3 31 6 45
6 l27 1 -24 19 c-26 22 -53 28 -33 8z"/>
<path d="M536 1024 c-17 -43 -8 -54 44 -54 33 0 50 4 50 13 0 6 3 22 6 35 6
21 3 22 -44 22 -36 0 -52 -4 -56 -16z"/>
<path d="M821 940 l-23 -103 -149 6 c-148 7 -149 7 -154 -16 -20 -85 -55 -252
-55 -264 0 -9 14 -13 48 -13 l49 0 23 100 22 100 99 0 c54 0 99 -3 99 -7 0 -5
-9 -46 -20 -93 -11 -47 -20 -89 -20 -93 0 -4 23 -7 52 -5 l51 3 50 233 c27
128 47 235 45 238 -3 2 -25 7 -49 10 l-45 6 -23 -102z"/>
<path d="M2029 781 c-11 -30 -13 -31 -68 -31 -43 0 -62 -5 -74 -18 -24 -26
-11 -33 28 -16 44 18 85 18 85 0 0 -21 -57 -154 -80 -186 -17 -23 -18 -30 -7
-30 8 0 17 -9 20 -20 3 -11 13 -20 22 -20 9 0 14 4 11 9 -8 12 8 59 56 167
l41 92 58 6 c77 9 86 26 10 19 -59 -6 -59 -5 -63 22 -4 40 -26 43 -39 6z"/>
<path d="M1145 771 c48 -12 74 -29 91 -63 19 -37 14 -93 -11 -132 -14 -21 -25
-26 -60 -26 -71 0 -87 -54 -18 -62 44 -5 36 -21 -24 -53 -70 -36 -143 -104
-143 -132 0 -81 186 -49 257 44 21 27 24 41 21 85 -3 51 -3 52 30 62 28 8 36
6 53 -12 28 -31 68 -28 109 8 41 34 50 37 50 12 0 -43 63 -58 96 -21 l18 20 8
-20 c10 -28 36 -26 69 5 l26 25 7 -25 c8 -33 32 -33 67 0 l28 27 7 -27 c6 -27
37 -36 50 -14 4 7 3 8 -4 4 -17 -11 -15 2 17 90 15 43 26 85 24 92 -10 26 -31
10 -48 -35 -19 -51 -63 -120 -89 -142 -26 -21 -20 21 10 80 26 53 29 104 5
104 -7 0 -24 -28 -38 -63 -24 -60 -87 -142 -99 -129 -3 3 9 37 26 77 17 39 30
81 28 93 -4 25 -38 37 -38 13 0 -22 -55 -135 -80 -165 -13 -14 -26 -21 -36
-17 -21 8 -13 70 16 127 22 42 55 67 63 46 2 -6 8 -9 12 -5 11 11 -4 28 -25
28 -40 0 -71 -25 -110 -91 -40 -67 -84 -109 -114 -109 -26 0 -21 64 7 84 14
10 16 14 5 10 -10 -4 -18 -3 -18 1 0 23 55 95 73 95 5 0 7 -15 4 -32 -5 -29
-4 -30 5 -11 17 36 3 56 -35 49 -38 -7 -77 -49 -98 -108 -14 -37 -21 -44 -57
-55 -51 -14 -67 1 -29 29 65 48 85 129 45 188 -27 39 -74 59 -138 58 -40 0
-42 -1 -15 -7z m45 -361 c0 -50 -43 -102 -104 -125 -57 -22 -90 -17 -94 13 -4
28 43 76 120 121 70 40 78 40 78 -9z"/>
<path d="M1034 741 c-49 -30 -86 -85 -92 -136 -5 -47 8 -75 36 -75 11 0 13 8
8 38 -8 55 11 111 54 154 42 42 40 47 -6 19z"/>
<path d="M100 724 c-67 -23 -81 -58 -31 -77 28 -10 31 -16 47 -106 16 -90 33
-147 34 -112 0 25 -30 185 -40 209 -6 13 -18 22 -31 22 -28 0 -21 31 11 47 31
16 96 17 105 2 4 -5 -1 -19 -10 -29 -17 -19 -16 -24 15 -122 18 -57 39 -112
46 -123 21 -30 17 -9 -21 99 -40 112 -41 124 -17 142 29 22 3 49 -49 51 -24 1
-51 0 -59 -3z"/>
<path d="M1093 693 c-4 -10 -22 -56 -40 -103 -37 -94 -42 -133 -17 -128 19 4
96 172 98 213 1 34 -30 48 -41 18z"/>
<path d="M2067 621 c-9 -27 -33 -73 -54 -102 -20 -30 -27 -46 -16 -36 25 22
29 21 36 -3 6 -22 36 -27 55 -8 19 19 21 6 5 -33 -8 -20 -24 -42 -36 -48 -12
-6 -14 -9 -4 -7 23 7 22 -15 -4 -48 -14 -18 -16 -26 -7 -26 25 0 58 31 74 68
8 20 27 50 42 67 15 16 18 23 8 15 -18 -14 -19 -13 -11 5 45 110 67 176 62
189 -9 22 -37 20 -37 -2 0 -46 -97 -198 -115 -180 -3 3 9 42 26 87 17 45 28
88 25 96 -11 29 -32 14 -49 -34z"/>
<path d="M671 622 c-1 -7 -19 -41 -41 -75 l-40 -62 44 48 45 48 10 -33 c8 -28
9 -29 9 -8 0 26 -26 105 -27 82z"/>
<path d="M2204 498 l-19 -23 23 19 c21 18 27 26 19 26 -2 0 -12 -10 -23 -22z"/>
<path d="M702 483 c-1 -17 -5 -40 -8 -50 -5 -17 -5 -17 6 0 6 9 9 32 7 50 l-4
32 -1 -32z"/>
<path d="M434 472 c7 -15 16 -34 20 -42 3 -8 3 0 0 17 -5 29 -3 32 13 27 10
-4 31 -19 46 -33 19 -17 26 -20 22 -9 -8 20 -47 47 -86 58 -28 8 -29 8 -15
-18z"/>
<path d="M1388 412 c9 -6 -1 -18 -32 -40 -149 -107 -187 -369 -52 -364 48 2
81 19 35 19 -47 0 -61 25 -57 98 5 74 43 158 99 215 41 42 55 46 72 19 8 -13
-2 -45 -31 -101 -2 -5 6 -8 17 -8 43 0 58 93 21 130 -12 12 -18 25 -15 30 4 6
-10 10 -32 10 -23 0 -33 -3 -25 -8z"/>
<path d="M9 388 c-6 -68 27 -164 81 -233 22 -28 40 -57 40 -63 0 -9 66 -12
243 -12 243 0 244 0 255 23 7 12 28 41 47 65 35 44 75 151 75 203 l0 29 -370
0 c-289 0 -370 -3 -371 -12z m718 -50 c-8 -63 -45 -142 -88 -186 l-31 -32
-233 0 -233 0 -27 31 c-59 70 -110 213 -83 231 7 4 168 8 357 8 l344 0 -6 -52z"/>
<path d="M2003 354 c-3 -8 -2 -19 3 -24 5 -5 9 1 9 16 0 28 -3 30 -12 8z"/>
<path d="M1745 330 c-4 -6 -3 -25 1 -43 4 -17 9 -26 11 -19 3 6 16 12 30 12
20 0 24 -4 18 -17 -37 -90 -43 -142 -19 -150 6 -2 26 8 43 23 18 14 33 25 34
23 1 -2 7 -13 13 -24 6 -11 21 -22 34 -23 22 -4 22 -3 7 13 -23 22 -21 40 6
66 12 12 16 19 10 15 -7 -4 -13 -2 -13 4 0 21 33 68 54 79 l21 10 -21 0 c-32
1 -68 -32 -103 -94 -17 -30 -40 -59 -51 -65 -26 -14 -25 -3 5 62 36 76 34 88
-15 88 -36 0 -40 3 -40 25 0 25 -14 33 -25 15z"/>
<path d="M1568 273 c-14 -16 -45 -60 -70 -99 -25 -39 -63 -88 -84 -109 -29
-28 -32 -34 -12 -20 16 9 44 39 63 65 l36 48 24 -24 c13 -13 30 -24 37 -24 9
0 9 3 0 12 -18 18 -15 47 12 104 21 46 56 79 56 54 0 -6 5 -10 11 -10 8 0 8 5
-1 15 -19 22 -43 18 -72 -12z"/>
<path d="M1660 266 c-6 -18 -26 -59 -45 -91 -19 -32 -28 -51 -19 -44 14 11 18
11 29 -4 15 -21 29 -22 45 -2 11 13 10 14 -4 9 -14 -5 -12 5 10 65 25 67 27
101 5 101 -5 0 -14 -15 -21 -34z"/>
<path d="M1966 232 l-19 -27 24 22 c12 12 21 24 18 27 -2 2 -13 -8 -23 -22z"/>
<path d="M1974 148 l-19 -23 23 19 c12 11 22 21 22 23 0 8 -8 2 -26 -19z"/>
</g>
</svg>
